<svg xmlns="http://www.w3.org/2000/svg" width="918" height="532" viewBox="0 0 918 532" version="1.1"><path d="M 303 87.500 C 303 87.775, 303.225 88, 303.500 88 C 303.775 88, 304 87.775, 304 87.500 C 304 87.225, 303.775 87, 303.500 87 C 303.225 87, 303 87.225, 303 87.500 M 519 91.500 C 519 91.775, 519.225 92, 519.500 92 C 519.775 92, 520 91.775, 520 91.500 C 520 91.225, 519.775 91, 519.500 91 C 519.225 91, 519 91.225, 519 91.500 M 257.333 123.667 C 257.700 124.033, 258.300 124.033, 258.667 123.667 C 259.033 123.300, 258.733 123, 258 123 C 257.267 123, 256.967 123.300, 257.333 123.667 M 349 123.500 C 349 123.775, 349.225 124, 349.500 124 C 349.775 124, 350 123.775, 350 123.500 C 350 123.225, 349.775 123, 349.500 123 C 349.225 123, 349 123.225, 349 123.500 M 281.500 142 C 281.840 142.550, 282.343 143, 282.618 143 C 282.893 143, 282.840 142.550, 282.500 142 C 282.160 141.450, 281.657 141, 281.382 141 C 281.107 141, 281.160 141.450, 281.500 142 M 294 165.500 C 294 165.775, 294.225 166, 294.500 166 C 294.775 166, 295 165.775, 295 165.500 C 295 165.225, 294.775 165, 294.500 165 C 294.225 165, 294 165.225, 294 165.500 M 275.459 179.067 C 275.096 179.653, 275.006 180.339, 275.257 180.591 C 275.509 180.842, 276.284 180.362, 276.980 179.524 C 277.769 178.574, 277.845 178, 277.181 178 C 276.597 178, 275.821 178.480, 275.459 179.067 M 331.500 180 C 331.840 180.550, 332.343 181, 332.618 181 C 332.893 181, 332.840 180.550, 332.500 180 C 332.160 179.450, 331.657 179, 331.382 179 C 331.107 179, 331.160 179.450, 331.500 180 M 586 241 L 586 269 674.500 269 L 763 269 763 241 L 763 213 674.500 213 L 586 213 586 241 M 546 459.500 C 546 459.775, 546.225 460, 546.500 460 C 546.775 460, 547 459.775, 547 459.500 C 547 459.225, 546.775 459, 546.500 459 C 546.225 459, 546 459.225, 546 459.500 M 172 464.500 C 172 464.775, 172.225 465, 172.500 465 C 172.775 465, 173 464.775, 173 464.500 C 173 464.225, 172.775 464, 172.500 464 C 172.225 464, 172 464.225, 172 464.500 M 352 464.500 C 352 464.775, 352.225 465, 352.500 465 C 352.775 465, 353 464.775, 353 464.500 C 353 464.225, 352.775 464, 352.500 464 C 352.225 464, 352 464.225, 352 464.500 M 588 464.500 C 588 464.775, 588.225 465, 588.500 465 C 588.775 465, 589 464.775, 589 464.500 C 589 464.225, 588.775 464, 588.500 464 C 588.225 464, 588 464.225, 588 464.500 M 645 464.500 C 645 464.775, 645.225 465, 645.500 465 C 645.775 465, 646 464.775, 646 464.500 C 646 464.225, 645.775 464, 645.500 464 C 645.225 464, 645 464.225, 645 464.500 M 472 501.500 C 472 501.775, 472.225 502, 472.500 502 C 472.775 502, 473 501.775, 473 501.500 C 473 501.225, 472.775 501, 472.500 501 C 472.225 501, 472 501.225, 472 501.500" stroke="none" fill="#2d3194" fill-rule="evenodd"/><path d="M 133.466 89.250 C 134.217 91.037, 138.523 99.925, 143.035 109 C 147.547 118.075, 160.363 144.175, 171.515 167 C 182.667 189.825, 199.539 224.250, 209.008 243.500 C 218.476 262.750, 229.945 286.150, 234.493 295.500 C 239.041 304.850, 251.065 329.375, 261.213 350 C 271.361 370.625, 280.883 388.936, 282.372 390.692 C 283.862 392.448, 287.834 395.260, 291.200 396.942 C 296.016 399.349, 298.617 400, 303.410 399.999 C 308.033 399.999, 310.956 399.310, 315.543 397.140 C 318.867 395.567, 322.879 392.755, 324.459 390.890 C 326.039 389.026, 336.760 368.375, 348.284 345 C 359.807 321.625, 373.181 294.400, 378.003 284.500 C 382.825 274.600, 394.527 250.750, 404.007 231.500 C 413.487 212.250, 425.633 187.500, 430.998 176.500 C 436.363 165.500, 448.458 140.832, 457.876 121.683 C 467.294 102.534, 475 86.671, 475 86.433 C 475 86.195, 461.018 86, 443.929 86 L 412.857 86 395.817 120.750 C 386.444 139.863, 374.604 164.050, 369.504 174.500 C 364.405 184.950, 355.284 203.625, 349.236 216 C 343.187 228.375, 330.526 254.219, 321.099 273.430 C 310.651 294.725, 303.603 307.997, 303.044 307.430 C 302.540 306.919, 292.368 286.475, 280.439 262 C 268.511 237.525, 254.480 208.725, 249.260 198 C 244.041 187.275, 233.267 165.225, 225.320 149 C 217.372 132.775, 207.226 111.963, 202.772 102.750 L 194.674 86 163.388 86 L 132.102 86 133.466 89.250 M 526.026 87.955 C 523.015 88.994, 520.390 90.329, 520.193 90.922 C 519.995 91.515, 519.280 92, 518.604 92 C 517.927 92, 516.214 93.237, 514.797 94.750 C 513.380 96.263, 511.158 99.525, 509.860 102 L 507.500 106.500 507.237 251.250 L 506.974 396 534.983 396 L 562.992 396 563.246 269.250 L 563.500 142.500 675.750 142.246 L 788 141.991 788 113.996 L 788 86 659.750 86.033 C 536.644 86.064, 531.280 86.141, 526.026 87.955 M 299.525 99.665 C 297.524 106.174, 295.088 113.975, 294.112 117 L 292.337 122.500 275.665 123 C 266.495 123.275, 258.882 123.777, 258.746 124.116 C 258.611 124.455, 263.316 128.393, 269.202 132.866 C 275.089 137.340, 280.324 141, 280.837 141 C 281.350 141, 282.522 142.148, 283.441 143.551 C 285.049 146.004, 284.941 146.662, 280.623 160.801 C 278.155 168.885, 275.828 176.296, 275.453 177.269 C 274.845 178.846, 275.082 178.920, 277.636 177.951 C 279.211 177.353, 283.538 174.557, 287.250 171.736 C 290.962 168.916, 294 166.246, 294 165.804 C 294 165.362, 294.480 165, 295.067 165 C 295.653 165, 297.674 163.825, 299.557 162.389 C 301.439 160.953, 303.613 160.021, 304.387 160.318 C 305.161 160.615, 311.438 165.167, 318.336 170.433 C 325.233 175.700, 331.124 179.608, 331.426 179.119 C 331.728 178.630, 329.728 170.941, 326.980 162.033 C 324.232 153.124, 322.192 145.498, 322.447 145.085 C 322.703 144.672, 328.781 139.907, 335.956 134.495 C 343.130 129.084, 349 124.294, 349 123.852 C 349 123.409, 341.294 122.924, 331.876 122.774 L 314.753 122.500 309.626 105.825 C 306.807 96.653, 304.199 88.852, 303.832 88.490 C 303.465 88.127, 301.527 93.156, 299.525 99.665 M 137.257 454.165 C 134.172 454.855, 132.262 456.102, 130.257 458.730 C 127.509 462.333, 127.500 462.397, 127.500 478.599 C 127.500 493.464, 127.677 495.095, 129.571 497.677 C 130.710 499.230, 133.185 501.292, 135.071 502.261 C 138.026 503.778, 140.920 503.985, 156 503.761 L 173.500 503.500 173.349 500 C 173.267 498.075, 173.154 495.498, 173.099 494.274 C 173.001 492.077, 172.784 492.045, 156.250 491.774 L 139.500 491.500 139.500 478.500 L 139.500 465.500 155.784 465.225 L 172.068 464.950 173.056 462.352 C 173.600 460.923, 173.759 458.234, 173.411 456.377 L 172.777 453 157.139 453.107 C 148.537 453.166, 139.591 453.642, 137.257 454.165 M 195.685 454.017 C 194.137 454.482, 191.370 456.006, 189.537 457.404 C 187.704 458.802, 185.259 461.900, 184.102 464.289 C 182.408 467.788, 182 470.518, 182 478.348 C 182 484.856, 182.511 489.287, 183.548 491.768 C 184.399 493.806, 186.086 496.535, 187.298 497.834 C 188.509 499.132, 191.300 501.128, 193.500 502.270 C 196.928 504.048, 199.137 504.324, 208.955 504.202 C 218.830 504.079, 221.037 503.736, 224.955 501.720 C 227.455 500.434, 230.508 497.886, 231.740 496.058 C 232.971 494.231, 234.431 491.107, 234.984 489.118 C 235.537 487.128, 235.981 481.900, 235.972 477.500 C 235.961 471.907, 235.406 468.296, 234.129 465.500 C 233.124 463.300, 230.795 460.034, 228.953 458.242 C 227.112 456.451, 224.006 454.541, 222.052 453.998 C 220.099 453.455, 214 453.047, 208.500 453.092 C 203 453.136, 197.233 453.552, 195.685 454.017 M 248.655 454.829 C 247.213 456.422, 247 459.706, 247 480.329 L 247 504 252.500 504 C 257.521 504, 258.005 503.804, 258.054 501.750 C 258.083 500.512, 258.061 494.028, 258.005 487.339 C 257.948 480.651, 258.290 474.939, 258.765 474.646 C 259.239 474.352, 266.045 480.837, 273.888 489.056 C 286.786 502.573, 288.472 504, 291.539 504 C 293.868 504, 295.254 503.394, 295.965 502.066 C 296.595 500.889, 297 490.882, 297 476.516 L 297 452.900 291.250 453.200 L 285.500 453.500 285 468.389 L 284.500 483.278 269.893 468.139 C 258.751 456.592, 254.695 453, 252.798 453 C 251.429 453, 249.565 453.823, 248.655 454.829 M 319.500 453.916 C 317.850 454.321, 315.528 455.175, 314.339 455.814 C 313.151 456.452, 311.195 458.566, 309.994 460.510 C 308.481 462.958, 307.820 465.597, 307.847 469.083 C 307.871 472.106, 308.623 475.383, 309.729 477.275 C 310.742 479.010, 313.067 481.303, 314.896 482.371 C 317.567 483.931, 320.907 484.430, 331.861 484.907 L 345.500 485.500 345.500 488.500 L 345.500 491.500 326.750 491.772 L 308 492.044 308 498.080 L 308 504.117 327.930 503.808 C 346.229 503.525, 348.085 503.331, 350.618 501.438 C 352.135 500.304, 354.304 498.134, 355.438 496.615 C 356.954 494.584, 357.500 492.350, 357.500 488.177 C 357.500 483.906, 356.948 481.726, 355.270 479.373 C 354.043 477.654, 351.500 475.516, 349.619 474.623 C 347.078 473.418, 343.235 473, 334.681 473 C 328.346 473, 322.452 472.727, 321.582 472.393 C 320.663 472.040, 320 470.618, 320 469 C 320 467.382, 320.663 465.960, 321.582 465.607 C 322.452 465.273, 329.539 464.993, 337.332 464.985 C 345.124 464.976, 352.090 464.595, 352.811 464.138 C 353.679 463.588, 354.017 461.649, 353.811 458.403 L 353.500 453.500 338 453.340 C 329.475 453.252, 321.150 453.511, 319.500 453.916 M 363.684 453.649 C 363.308 454.026, 363 456.733, 363 459.667 L 363 465 372.500 465 L 382 465 382 484.500 L 382 504 388 504 L 394 504 394 484.500 L 394 465 403.550 465 L 413.100 465 412.800 459.250 L 412.500 453.500 388.434 453.233 C 375.198 453.086, 364.060 453.273, 363.684 453.649 M 423.455 455.455 L 421 457.909 421 480.955 L 421 504 426.958 504 L 432.916 504 433.208 496.250 L 433.500 488.500 436.581 488.199 C 439.178 487.946, 441.167 489.170, 449.253 495.997 L 458.845 504.095 465.673 503.797 C 470.937 503.568, 472.502 503.157, 472.510 502 C 472.516 501.175, 469.478 497.847, 465.760 494.604 C 462.042 491.361, 459 488.577, 459 488.418 C 459 488.258, 460.822 487.104, 463.049 485.852 C 465.277 484.600, 468.089 481.984, 469.299 480.038 C 471.068 477.194, 471.500 474.995, 471.500 468.827 C 471.500 462.606, 471.104 460.619, 469.406 458.327 C 468.255 456.772, 465.780 454.963, 463.906 454.306 C 461.802 453.569, 453.889 453.091, 443.205 453.056 C 426.140 453.001, 425.876 453.033, 423.455 455.455 M 482.022 469.250 C 482.040 482.861, 482.342 486.150, 483.879 489.500 C 484.888 491.700, 487.010 494.783, 488.594 496.351 C 490.178 497.918, 493.280 500.158, 495.487 501.328 C 498.908 503.141, 501.588 503.508, 513.658 503.819 C 526.950 504.161, 527.944 504.056, 529.908 502.092 C 531.912 500.088, 532 499.011, 532 476.450 L 532 452.900 526.250 453.200 L 520.500 453.500 520.228 472.750 L 519.957 492 512.101 492 C 507.494 492, 502.806 491.399, 500.768 490.548 C 498.857 489.749, 496.449 487.836, 495.419 486.298 C 493.843 483.944, 493.485 481.080, 493.166 468.250 L 492.786 453 487.393 453 L 482 453 482.022 469.250 M 556 453.683 C 554.625 453.908, 552.263 454.577, 550.750 455.168 C 549.237 455.759, 548 456.569, 548 456.968 C 548 457.367, 547.100 458.732, 546 460 C 544.175 462.105, 544 463.741, 544 478.749 C 544 493.968, 544.160 495.416, 546.149 498.209 C 547.330 499.868, 549.791 501.850, 551.617 502.613 C 554.018 503.617, 559.782 504, 572.468 504 L 590 504 590 498 L 590 492 573 492 C 563.650 492, 555.978 491.663, 555.951 491.250 C 555.925 490.837, 555.695 485.325, 555.440 479 C 555.186 472.675, 555.336 466.956, 555.773 466.290 C 556.337 465.433, 561.437 465.043, 573.284 464.952 L 590 464.824 590 459.519 C 590 455.604, 589.586 454.055, 588.418 453.607 C 587.548 453.273, 580.461 453.061, 572.668 453.136 C 564.876 453.211, 557.375 453.457, 556 453.683 M 596.413 455.489 C 596.065 456.877, 596.075 459.585, 596.435 461.507 L 597.091 465 606.045 465 L 615 465 615 484.500 L 615 504 620.978 504 L 626.957 504 627.228 484.750 L 627.500 465.500 636.500 465 L 645.500 464.500 645.500 459 L 645.500 453.500 621.274 453.232 L 597.047 452.965 596.413 455.489 M 655 478.500 L 655 504 660.466 504 L 665.932 504 666.216 479.492 C 666.372 466.013, 666.350 454.538, 666.167 453.992 C 665.983 453.447, 663.396 453, 660.417 453 L 655 453 655 478.500 M 689.429 454.893 C 687.190 455.910, 683.968 458.429, 682.268 460.492 C 680.568 462.554, 678.687 466.186, 678.088 468.564 C 677.490 470.941, 677 475.530, 677 478.761 C 677 481.993, 677.661 486.864, 678.470 489.586 C 679.408 492.746, 681.306 495.863, 683.720 498.208 C 685.799 500.228, 688.767 502.358, 690.315 502.940 C 691.863 503.523, 698.320 504, 704.664 504 C 713.173 504, 717.083 503.580, 719.575 502.397 C 721.433 501.516, 724.498 499.085, 726.385 496.995 C 728.846 494.272, 730.161 491.540, 731.032 487.348 C 731.713 484.072, 732.002 478.571, 731.689 474.839 C 731.382 471.175, 730.246 466.450, 729.163 464.339 C 728.080 462.227, 726.132 459.509, 724.834 458.298 C 723.535 457.086, 720.806 455.399, 718.768 454.548 C 716.188 453.469, 711.795 453.007, 704.282 453.022 C 695.963 453.039, 692.570 453.466, 689.429 454.893 M 743.872 454.651 C 742.814 455.925, 742.431 461.756, 742.199 480.151 L 741.899 504 747.949 504 L 754 504 754 489 C 754 480.750, 754.191 474, 754.424 474 C 754.658 474, 759.945 479.275, 766.174 485.722 C 772.403 492.169, 778.918 498.919, 780.650 500.722 C 782.871 503.033, 784.707 504, 786.877 504 C 789.005 504, 790.430 503.274, 791.496 501.646 C 792.794 499.666, 792.996 495.661, 792.769 476.396 L 792.500 453.500 786.750 453.200 L 781 452.900 781 467.950 C 781 476.228, 780.733 483, 780.407 483 C 780.080 483, 773.269 476.250, 765.270 468 C 753.492 455.852, 750.206 453, 747.986 453 C 746.478 453, 744.627 453.743, 743.872 454.651 M 203.379 464.733 C 199.590 465.001, 197.680 465.711, 196.033 467.465 C 194.114 469.508, 193.790 471.018, 193.685 478.426 C 193.569 486.534, 193.717 487.171, 196.302 489.759 C 198.871 492.329, 199.639 492.513, 208.643 492.704 C 218.008 492.904, 218.316 492.838, 221.123 490.031 C 223.821 487.333, 224 486.648, 224 479.011 C 224 474.533, 223.514 469.960, 222.920 468.850 C 222.325 467.739, 220.315 466.194, 218.452 465.415 C 216.589 464.637, 213.587 464.083, 211.782 464.185 C 209.977 464.287, 206.196 464.533, 203.379 464.733 M 695.961 465.142 C 694.137 465.515, 691.888 466.822, 690.964 468.047 C 689.810 469.577, 689.225 472.518, 689.095 477.447 C 688.990 481.392, 689.357 485.809, 689.910 487.262 C 690.462 488.715, 692.261 490.601, 693.907 491.452 C 695.861 492.462, 699.609 492.999, 704.700 492.996 C 710.588 492.993, 713.261 492.529, 715.604 491.100 C 717.657 489.848, 718.927 488.113, 719.354 485.978 C 719.709 484.203, 720 480.542, 720 477.843 C 720 475.144, 719.355 471.391, 718.566 469.503 C 717.674 467.370, 716.256 465.876, 714.816 465.556 C 713.542 465.273, 709.525 464.911, 705.889 464.752 C 702.253 464.593, 697.786 464.769, 695.961 465.142 M 433 471.110 L 433 477.220 445.120 476.806 C 455.555 476.449, 457.432 476.129, 458.620 474.505 C 459.379 473.467, 460 470.904, 460 468.809 L 460 465 446.500 465 L 433 465 433 471.110" stroke="none" fill="#d31e2f" fill-rule="evenodd"/></svg>